<svg width="97" height="19" viewBox="0 0 97 19" fill="none" xmlns="http://www.w3.org/2000/svg">
<path d="M0.721591 18V0.545454H12.0739V3.19602H3.88352V7.93466H11.4858V10.5852H3.88352V15.3494H12.142V18H0.721591ZM19.7813 18.2301C18.7529 18.2301 17.8324 17.9659 17.0199 17.4375C16.2074 16.9091 15.5654 16.142 15.0938 15.1364C14.6222 14.1307 14.3864 12.9091 14.3864 11.4716C14.3864 10.017 14.6251 8.78977 15.1023 7.78977C15.5853 6.78409 16.2359 6.02557 17.054 5.5142C17.8722 4.99716 18.7841 4.73864 19.7898 4.73864C20.5569 4.73864 21.1876 4.86932 21.6819 5.13068C22.1762 5.38636 22.5682 5.69602 22.858 6.05966C23.1478 6.41761 23.3722 6.75568 23.5313 7.07386H23.6591V0.545454H26.7529V18H23.7188V15.9375H23.5313C23.3722 16.2557 23.1421 16.5937 22.841 16.9517C22.5398 17.304 22.1421 17.6051 21.6478 17.8551C21.1535 18.1051 20.5313 18.2301 19.7813 18.2301ZM20.6421 15.6989C21.2955 15.6989 21.8523 15.5227 22.3126 15.1705C22.7728 14.8125 23.1222 14.3153 23.3609 13.679C23.5995 13.0426 23.7188 12.3011 23.7188 11.4545C23.7188 10.608 23.5995 9.87216 23.3609 9.24716C23.1279 8.62216 22.7813 8.13636 22.3211 7.78977C21.8665 7.44318 21.3069 7.26989 20.6421 7.26989C19.9546 7.26989 19.3807 7.44886 18.9205 7.80682C18.4603 8.16477 18.1137 8.65909 17.8807 9.28977C17.6478 9.92045 17.5313 10.642 17.5313 11.4545C17.5313 12.2727 17.6478 13.0028 17.8807 13.6449C18.1194 14.2812 18.4688 14.7841 18.929 15.1534C19.3949 15.517 19.966 15.6989 20.6421 15.6989ZM38.1443 12.4943V4.90909H41.2295V18H38.238V15.6733H38.1017C37.8062 16.4062 37.3204 17.0057 36.6443 17.4716C35.9738 17.9375 35.1471 18.1705 34.1642 18.1705C33.3062 18.1705 32.5477 17.9801 31.8886 17.5994C31.2352 17.2131 30.7238 16.6534 30.3545 15.9205C29.9852 15.1818 29.8005 14.2898 29.8005 13.2443V4.90909H32.8858V12.767C32.8858 13.5966 33.113 14.2557 33.5676 14.7443C34.0221 15.233 34.6187 15.4773 35.3574 15.4773C35.8119 15.4773 36.2522 15.3665 36.6784 15.1449C37.1045 14.9233 37.4539 14.5938 37.7267 14.1562C38.0051 13.7131 38.1443 13.1591 38.1443 12.4943Z" fill="#0DAFAF"/>
<path d="M44.2985 18V0.545454H55.6507V3.19602H47.4604V7.93466H55.0627V10.5852H47.4604V15.3494H55.7189V18H44.2985ZM62.2673 18.2642C61.4377 18.2642 60.6906 18.1165 60.0258 17.821C59.3667 17.5199 58.844 17.0767 58.4576 16.4915C58.0769 15.9062 57.8866 15.1847 57.8866 14.3267C57.8866 13.5881 58.023 12.9773 58.2957 12.4943C58.5684 12.0114 58.9406 11.625 59.4122 11.3352C59.8838 11.0455 60.415 10.8267 61.0059 10.679C61.6025 10.5256 62.219 10.4148 62.8553 10.3466C63.6224 10.267 64.2445 10.196 64.7218 10.1335C65.1991 10.0653 65.5457 9.96307 65.7616 9.8267C65.9832 9.68466 66.094 9.46591 66.094 9.17045V9.11932C66.094 8.47727 65.9036 7.98011 65.523 7.62784C65.1423 7.27557 64.594 7.09943 63.8781 7.09943C63.1224 7.09943 62.523 7.2642 62.0798 7.59375C61.6423 7.9233 61.3468 8.3125 61.1934 8.76136L58.3127 8.35227C58.54 7.55682 58.915 6.89205 59.4377 6.35795C59.9605 5.81818 60.5997 5.41477 61.3553 5.14773C62.111 4.875 62.9463 4.73864 63.861 4.73864C64.4917 4.73864 65.1195 4.8125 65.7445 4.96023C66.3695 5.10795 66.9406 5.35227 67.4576 5.69318C67.9747 6.02841 68.3894 6.4858 68.7019 7.06534C69.0201 7.64489 69.1792 8.36932 69.1792 9.23864V18H66.2133V16.2017H66.111C65.9235 16.5653 65.6593 16.9062 65.3184 17.2244C64.9832 17.5369 64.5599 17.7898 64.0485 17.983C63.5428 18.1705 62.9491 18.2642 62.2673 18.2642ZM63.0684 15.9972C63.6877 15.9972 64.2247 15.875 64.6792 15.6307C65.1338 15.3807 65.4832 15.0511 65.7275 14.642C65.9775 14.233 66.1025 13.7869 66.1025 13.304V11.7614C66.0059 11.8409 65.8411 11.9148 65.6082 11.983C65.3809 12.0511 65.1252 12.1108 64.8411 12.1619C64.557 12.2131 64.2758 12.2585 63.9974 12.2983C63.719 12.3381 63.4775 12.3722 63.273 12.4006C62.8127 12.4631 62.4008 12.5653 62.0372 12.7074C61.6735 12.8494 61.3866 13.0483 61.1764 13.304C60.9661 13.554 60.861 13.8778 60.861 14.2756C60.861 14.8438 61.0684 15.2727 61.4832 15.5625C61.898 15.8523 62.4264 15.9972 63.0684 15.9972ZM82.3881 8.36932L79.5756 8.67614C79.496 8.39205 79.3568 8.125 79.158 7.875C78.9648 7.625 78.7034 7.4233 78.3739 7.26989C78.0443 7.11648 77.6409 7.03977 77.1636 7.03977C76.5216 7.03977 75.9818 7.17898 75.5443 7.45739C75.1125 7.7358 74.8994 8.09659 74.9051 8.53977C74.8994 8.92045 75.0386 9.23011 75.3227 9.46875C75.6125 9.70739 76.0898 9.90341 76.7545 10.0568L78.9875 10.5341C80.2261 10.8011 81.1466 11.2244 81.7489 11.804C82.3568 12.3835 82.6636 13.142 82.6693 14.0795C82.6636 14.9034 82.4222 15.6307 81.9449 16.2614C81.4733 16.8864 80.817 17.375 79.9761 17.7273C79.1352 18.0795 78.1693 18.2557 77.0784 18.2557C75.4761 18.2557 74.1864 17.9205 73.2091 17.25C72.2318 16.5739 71.6494 15.6335 71.4619 14.429L74.4705 14.1392C74.6068 14.7301 74.8966 15.1761 75.3398 15.4773C75.783 15.7784 76.3597 15.929 77.0699 15.929C77.8028 15.929 78.3909 15.7784 78.8341 15.4773C79.283 15.1761 79.5074 14.804 79.5074 14.3608C79.5074 13.9858 79.3625 13.6761 79.0727 13.4318C78.7886 13.1875 78.3455 13 77.7432 12.8693L75.5102 12.4006C74.2545 12.1392 73.3256 11.6989 72.7233 11.0795C72.121 10.4545 71.8227 9.66477 71.8284 8.71023C71.8227 7.90341 72.0415 7.20455 72.4847 6.61364C72.9335 6.01705 73.5557 5.55682 74.3511 5.23295C75.1523 4.90341 76.0756 4.73864 77.121 4.73864C78.6551 4.73864 79.8625 5.06534 80.7432 5.71875C81.6295 6.37216 82.1778 7.25568 82.3881 8.36932ZM90.7688 18.2557C89.4563 18.2557 88.3228 17.983 87.3682 17.4375C86.4194 16.8864 85.6893 16.108 85.1779 15.1023C84.6665 14.0909 84.4108 12.9006 84.4108 11.5312C84.4108 10.1847 84.6665 9.00284 85.1779 7.9858C85.6949 6.96307 86.4165 6.16761 87.3427 5.59943C88.2688 5.02557 89.3569 4.73864 90.6069 4.73864C91.4137 4.73864 92.1751 4.86932 92.891 5.13068C93.6126 5.38636 94.2489 5.78409 94.8001 6.32386C95.3569 6.86364 95.7944 7.55114 96.1126 8.38636C96.4307 9.21591 96.5898 10.2045 96.5898 11.3523V12.2983H85.8597V10.2188H93.6324C93.6268 9.62784 93.4989 9.10227 93.2489 8.64205C92.9989 8.17614 92.6495 7.80966 92.2006 7.54261C91.7574 7.27557 91.2404 7.14205 90.6495 7.14205C90.0188 7.14205 89.4648 7.29545 88.9876 7.60227C88.5103 7.90341 88.1381 8.30114 87.8711 8.79545C87.6097 9.28409 87.4762 9.82102 87.4705 10.4062V12.2216C87.4705 12.983 87.6097 13.6364 87.8881 14.1818C88.1665 14.7216 88.5557 15.1364 89.0557 15.4261C89.5557 15.7102 90.141 15.8523 90.8114 15.8523C91.2603 15.8523 91.6665 15.7898 92.0302 15.6648C92.3938 15.5341 92.7091 15.3438 92.9762 15.0938C93.2432 14.8438 93.4449 14.5341 93.5813 14.1648L96.462 14.4886C96.2802 15.25 95.9336 15.9148 95.4222 16.483C94.9165 17.0455 94.2688 17.483 93.479 17.7955C92.6893 18.1023 91.7858 18.2557 90.7688 18.2557Z" fill="white"/>
</svg>
